<?xml version="1.0" encoding="UTF-8" standalone="no"?>
<svg
   xmlns:dc="http://purl.org/dc/elements/1.1/"
   xmlns:cc="http://creativecommons.org/ns#"
   xmlns:rdf="http://www.w3.org/1999/02/22-rdf-syntax-ns#"
   xmlns:svg="http://www.w3.org/2000/svg"
   xmlns="http://www.w3.org/2000/svg"
   xmlns:sodipodi="http://sodipodi.sourceforge.net/DTD/sodipodi-0.dtd"
   xmlns:inkscape="http://www.inkscape.org/namespaces/inkscape"
   version="1.1"
   width="24"
   height="24"
   viewBox="0 0 24 24"
   id="svg952"
   sodipodi:docname="head-50.svg"
   inkscape:version="1.0.1 (c497b03c, 2020-09-10)">
  <metadata
     id="metadata958">
    <rdf:RDF>
      <cc:Work
         rdf:about="">
        <dc:format>image/svg+xml</dc:format>
        <dc:type
           rdf:resource="http://purl.org/dc/dcmitype/StillImage" />
        <dc:title></dc:title>
      </cc:Work>
    </rdf:RDF>
  </metadata>
  <defs
     id="defs956" />
  <sodipodi:namedview
     pagecolor="#ffffff"
     bordercolor="#666666"
     borderopacity="1"
     objecttolerance="10"
     gridtolerance="10"
     guidetolerance="10"
     inkscape:pageopacity="0"
     inkscape:pageshadow="2"
     inkscape:window-width="1273"
     inkscape:window-height="791"
     id="namedview954"
     showgrid="false"
     inkscape:zoom="19.141874"
     inkscape:cx="11.663366"
     inkscape:cy="13.501568"
     inkscape:window-x="0"
     inkscape:window-y="23"
     inkscape:window-maximized="0"
     inkscape:current-layer="svg952" />
  <path
     d="M13 1C8.4 1 4.6 4.4 4.1 8.9L2.5 11C2 11.8 1.9 12.8 2.3 13.6C2.7 14.3 3.3 14.8 4 14.9V16C4 17.8 5.3 19.4 7 19.9V23H18V17.5C20.5 15.8 22 13.1 22 10C22 5 18 1 13 1M16 16.3V21H9V18H8C6.9 18 6 17.1 6 16V13H4.5C4.1 13 3.8 12.5 4.1 12.2L6 9.7C6.2 6 9.2 3 13 3C16.9 3 20 6.1 20 10C20 12.8 18.4 15.2 16 16.3Z"
     id="path950" />
  <path
     style="fill:none;stroke:#000000;stroke-width:2.1;stroke-linecap:butt;stroke-linejoin:miter;stroke-miterlimit:4;stroke-dasharray:none;stroke-opacity:1"
     d="m 7.8884648,20.060736 c 9.0377772,-0.05224 9.0377772,-0.05224 9.0377772,-0.05224 v 0"
     id="path1533" />
  <path
     style="fill:none;stroke:#000000;stroke-width:2.26802;stroke-linecap:butt;stroke-linejoin:miter;stroke-miterlimit:4;stroke-dasharray:none;stroke-opacity:1"
     d="m 6.3844339,18.060736 c 10.5418081,-0.05224 10.5418081,-0.05224 10.5418081,-0.05224 v 0"
     id="path1535" />
  <path
     style="fill:none;stroke:#000000;stroke-width:2.51512;stroke-linecap:butt;stroke-linejoin:miter;stroke-miterlimit:4;stroke-dasharray:none;stroke-opacity:1"
     d="m 4.9729533,16.060661 c 13.0013597,-0.05209 13.0013597,-0.05209 13.0013597,-0.05209 v 0"
     id="path1537" />
  <path
     style="fill:none;stroke:#000000;stroke-width:2.74959;stroke-linecap:butt;stroke-linejoin:miter;stroke-miterlimit:4;stroke-dasharray:none;stroke-opacity:1"
     d="m 4.1883274,14.060433 c 15.6759416,-0.05163 15.6759416,-0.05163 15.6759416,-0.05163 v 0"
     id="path1539" />
</svg>
